<mxfile host="app.diagrams.net" modified="2023-09-22T14:22:04.260Z" agent="Mozilla/5.0 (Windows NT 10.0; Win64; x64) AppleWebKit/537.36 (KHTML, like Gecko) Chrome/117.0.0.0 Safari/537.36" etag="JXB7lxiyQ1nuC3KgYRvM" version="21.8.0" type="github">
  <diagram name="第 1 页" id="6VpoMdF1UtFUlSB7jPXj">
    <mxGraphModel dx="1562" dy="830" grid="1" gridSize="10" guides="1" tooltips="1" connect="1" arrows="1" fold="1" page="1" pageScale="1" pageWidth="1920" pageHeight="1200" math="0" shadow="0">
      <root>
        <mxCell id="0" />
        <mxCell id="1" parent="0" />
        <mxCell id="6vssdcbbBTtyEO5g1ugg-1" value="Runtime.getRuntime.exe" style="rounded=0;whiteSpace=wrap;html=1;" vertex="1" parent="1">
          <mxGeometry x="1050" y="240" width="190" height="60" as="geometry" />
        </mxCell>
        <mxCell id="6vssdcbbBTtyEO5g1ugg-8" style="edgeStyle=orthogonalEdgeStyle;rounded=0;orthogonalLoop=1;jettySize=auto;html=1;exitX=1;exitY=0.5;exitDx=0;exitDy=0;entryX=0;entryY=0.5;entryDx=0;entryDy=0;" edge="1" parent="1" source="6vssdcbbBTtyEO5g1ugg-2" target="6vssdcbbBTtyEO5g1ugg-1">
          <mxGeometry relative="1" as="geometry" />
        </mxCell>
        <mxCell id="6vssdcbbBTtyEO5g1ugg-2" value="ChainedTransformer.transform" style="rounded=0;whiteSpace=wrap;html=1;" vertex="1" parent="1">
          <mxGeometry x="770" y="240" width="190" height="60" as="geometry" />
        </mxCell>
        <mxCell id="6vssdcbbBTtyEO5g1ugg-10" style="edgeStyle=orthogonalEdgeStyle;rounded=0;orthogonalLoop=1;jettySize=auto;html=1;exitX=1;exitY=0.5;exitDx=0;exitDy=0;entryX=0;entryY=0.5;entryDx=0;entryDy=0;" edge="1" parent="1" source="6vssdcbbBTtyEO5g1ugg-9" target="6vssdcbbBTtyEO5g1ugg-2">
          <mxGeometry relative="1" as="geometry" />
        </mxCell>
        <mxCell id="6vssdcbbBTtyEO5g1ugg-9" value="(MapEntry&lt;span style=&quot;background-color: initial;&quot;&gt;)setValue&lt;/span&gt;&lt;br&gt;TransformedMap.checkSetValue" style="rounded=0;whiteSpace=wrap;html=1;" vertex="1" parent="1">
          <mxGeometry x="480" y="240" width="200" height="60" as="geometry" />
        </mxCell>
        <mxCell id="6vssdcbbBTtyEO5g1ugg-13" style="edgeStyle=orthogonalEdgeStyle;rounded=0;orthogonalLoop=1;jettySize=auto;html=1;exitX=1;exitY=0.5;exitDx=0;exitDy=0;entryX=0;entryY=0.5;entryDx=0;entryDy=0;" edge="1" parent="1" source="6vssdcbbBTtyEO5g1ugg-11" target="6vssdcbbBTtyEO5g1ugg-9">
          <mxGeometry relative="1" as="geometry" />
        </mxCell>
        <mxCell id="6vssdcbbBTtyEO5g1ugg-18" style="edgeStyle=orthogonalEdgeStyle;rounded=0;orthogonalLoop=1;jettySize=auto;html=1;exitX=0.5;exitY=1;exitDx=0;exitDy=0;entryX=0.5;entryY=0;entryDx=0;entryDy=0;" edge="1" parent="1" source="6vssdcbbBTtyEO5g1ugg-11" target="6vssdcbbBTtyEO5g1ugg-17">
          <mxGeometry relative="1" as="geometry" />
        </mxCell>
        <mxCell id="6vssdcbbBTtyEO5g1ugg-11" value="sun.reflect.annotation.&lt;br&gt;AnnotationInvocationHandler.readObject" style="rounded=0;html=1;" vertex="1" parent="1">
          <mxGeometry x="70" y="240" width="360" height="60" as="geometry" />
        </mxCell>
        <mxCell id="6vssdcbbBTtyEO5g1ugg-12" value="ConstantTransformer.transform&lt;br&gt;InvokerTransformer.transform" style="whiteSpace=wrap;html=1;shape=mxgraph.basic.rectCallout;dx=30;dy=15;boundedLbl=1;" vertex="1" parent="1">
          <mxGeometry x="790" y="160" width="180" height="80" as="geometry" />
        </mxCell>
        <mxCell id="6vssdcbbBTtyEO5g1ugg-16" style="edgeStyle=orthogonalEdgeStyle;rounded=0;orthogonalLoop=1;jettySize=auto;html=1;entryX=0.5;entryY=1;entryDx=0;entryDy=0;" edge="1" parent="1" source="6vssdcbbBTtyEO5g1ugg-15" target="6vssdcbbBTtyEO5g1ugg-2">
          <mxGeometry relative="1" as="geometry" />
        </mxCell>
        <mxCell id="6vssdcbbBTtyEO5g1ugg-15" value="LazyMap.get" style="rounded=0;whiteSpace=wrap;html=1;" vertex="1" parent="1">
          <mxGeometry x="500" y="445" width="200" height="60" as="geometry" />
        </mxCell>
        <mxCell id="6vssdcbbBTtyEO5g1ugg-20" value="" style="edgeStyle=orthogonalEdgeStyle;rounded=0;orthogonalLoop=1;jettySize=auto;html=1;" edge="1" parent="1" source="6vssdcbbBTtyEO5g1ugg-17" target="6vssdcbbBTtyEO5g1ugg-15">
          <mxGeometry relative="1" as="geometry" />
        </mxCell>
        <mxCell id="6vssdcbbBTtyEO5g1ugg-17" value="Proxy(AnnotationInvocationHandler.readObject)&lt;br&gt;getKey&lt;br&gt;invoke" style="rounded=0;whiteSpace=wrap;html=1;" vertex="1" parent="1">
          <mxGeometry x="70" y="440" width="360" height="70" as="geometry" />
        </mxCell>
        <mxCell id="6vssdcbbBTtyEO5g1ugg-22" value="" style="edgeStyle=orthogonalEdgeStyle;rounded=0;orthogonalLoop=1;jettySize=auto;html=1;" edge="1" parent="1" source="6vssdcbbBTtyEO5g1ugg-21" target="6vssdcbbBTtyEO5g1ugg-15">
          <mxGeometry relative="1" as="geometry" />
        </mxCell>
        <mxCell id="6vssdcbbBTtyEO5g1ugg-21" value="TiedMapEntry.hashCode&lt;br&gt;getValue" style="rounded=0;whiteSpace=wrap;html=1;" vertex="1" parent="1">
          <mxGeometry x="500" y="580" width="200" height="70" as="geometry" />
        </mxCell>
        <mxCell id="6vssdcbbBTtyEO5g1ugg-24" value="" style="edgeStyle=orthogonalEdgeStyle;rounded=0;orthogonalLoop=1;jettySize=auto;html=1;" edge="1" parent="1" source="6vssdcbbBTtyEO5g1ugg-23" target="6vssdcbbBTtyEO5g1ugg-21">
          <mxGeometry relative="1" as="geometry" />
        </mxCell>
        <mxCell id="6vssdcbbBTtyEO5g1ugg-23" value="java.util.HashMap.readObject&lt;br&gt;hash" style="rounded=0;whiteSpace=wrap;html=1;" vertex="1" parent="1">
          <mxGeometry x="70" y="580" width="360" height="70" as="geometry" />
        </mxCell>
      </root>
    </mxGraphModel>
  </diagram>
</mxfile>
